<mxfile host="app.diagrams.net" modified="2024-05-14T11:50:59.675Z" agent="Mozilla/5.0 (Macintosh; Intel Mac OS X 10_15_7) AppleWebKit/537.36 (KHTML, like Gecko) Chrome/124.0.0.0 Safari/537.36" etag="140vlcObYsZGsRwNzV6J" version="24.4.0" type="github">
  <diagram id="C5RBs43oDa-KdzZeNtuy" name="Page-1">
    <mxGraphModel dx="1085" dy="1697" grid="1" gridSize="10" guides="1" tooltips="1" connect="1" arrows="1" fold="1" page="1" pageScale="1" pageWidth="827" pageHeight="1169" math="0" shadow="0">
      <root>
        <mxCell id="WIyWlLk6GJQsqaUBKTNV-0" />
        <mxCell id="WIyWlLk6GJQsqaUBKTNV-1" parent="WIyWlLk6GJQsqaUBKTNV-0" />
        <mxCell id="EGJwQnW9SdyxZlmGQHke-2" value="" style="edgeStyle=orthogonalEdgeStyle;rounded=0;orthogonalLoop=1;jettySize=auto;html=1;fontFamily=Helvetica;fontSize=12;fontColor=default;" edge="1" parent="WIyWlLk6GJQsqaUBKTNV-1" source="WIyWlLk6GJQsqaUBKTNV-3" target="WIyWlLk6GJQsqaUBKTNV-7">
          <mxGeometry relative="1" as="geometry" />
        </mxCell>
        <mxCell id="WIyWlLk6GJQsqaUBKTNV-3" value="保存 按钮" style="rounded=1;whiteSpace=wrap;html=1;fontSize=12;glass=0;strokeWidth=1;shadow=0;" parent="WIyWlLk6GJQsqaUBKTNV-1" vertex="1">
          <mxGeometry x="620" y="80" width="120" height="40" as="geometry" />
        </mxCell>
        <mxCell id="WIyWlLk6GJQsqaUBKTNV-7" value="&lt;span style=&quot;background-color: initial;&quot;&gt;&amp;nbsp; &amp;nbsp; 1. 更新当前 tab到 全局状态的 flowFiles中&lt;/span&gt;&lt;br&gt;&lt;span style=&quot;background-color: initial;&quot;&gt;&amp;nbsp; &amp;nbsp; 2. 把流程中自定义控件落盘&lt;/span&gt;&lt;br&gt;&lt;b style=&quot;background-color: initial;&quot;&gt;&amp;nbsp; &amp;nbsp; 3. 把全局状态的 flowFiles 落盘为 .rpa 文件 和 .py 文件&lt;/b&gt;&lt;br&gt;&lt;span style=&quot;background-color: initial;&quot;&gt;&amp;nbsp; &amp;nbsp; 4. 保存元素库相关内容&lt;/span&gt;&lt;br&gt;&lt;div&gt;&amp;nbsp; &amp;nbsp; 5. 更新 initData，用于后续判断是否有修改&lt;/div&gt;&lt;div&gt;&lt;br&gt;&lt;/div&gt;" style="rounded=1;whiteSpace=wrap;html=1;fontSize=12;glass=0;strokeWidth=1;shadow=0;align=left;" parent="WIyWlLk6GJQsqaUBKTNV-1" vertex="1">
          <mxGeometry x="520" y="220" width="320" height="100" as="geometry" />
        </mxCell>
        <mxCell id="EGJwQnW9SdyxZlmGQHke-0" value="start" style="ellipse;whiteSpace=wrap;html=1;" vertex="1" parent="WIyWlLk6GJQsqaUBKTNV-1">
          <mxGeometry x="410" y="-70" width="86" height="40" as="geometry" />
        </mxCell>
        <mxCell id="EGJwQnW9SdyxZlmGQHke-3" value="" style="edgeStyle=orthogonalEdgeStyle;rounded=0;orthogonalLoop=1;jettySize=auto;html=1;fontFamily=Helvetica;fontSize=12;fontColor=default;" edge="1" parent="WIyWlLk6GJQsqaUBKTNV-1" source="EGJwQnW9SdyxZlmGQHke-4" target="EGJwQnW9SdyxZlmGQHke-5">
          <mxGeometry relative="1" as="geometry" />
        </mxCell>
        <mxCell id="EGJwQnW9SdyxZlmGQHke-4" value="新建可视化流程" style="rounded=1;whiteSpace=wrap;html=1;fontSize=12;glass=0;strokeWidth=1;shadow=0;" vertex="1" parent="WIyWlLk6GJQsqaUBKTNV-1">
          <mxGeometry x="150" y="80" width="120" height="40" as="geometry" />
        </mxCell>
        <mxCell id="EGJwQnW9SdyxZlmGQHke-5" value="&lt;span style=&quot;background-color: initial;&quot;&gt;&amp;nbsp; &amp;nbsp; 1. 本地库在特定目录生成指定名称的流程相关文件目录，并跳转到 可视化编辑界面。&lt;/span&gt;&lt;div&gt;&lt;span style=&quot;background-color: initial;&quot;&gt;&amp;nbsp; &amp;nbsp; 2.&amp;nbsp; 可视化界面初始化, 根据流程路径，读取本地所有文件(.rpa、resource、元素库等)，并存入到当前的全局 store 中&lt;/span&gt;&lt;/div&gt;&lt;div&gt;&lt;span style=&quot;background-color: initial;&quot;&gt;&amp;nbsp; &amp;nbsp; 3. 界面根据 store 展示界面 （第一次 flowStore 的 flows中只有主流程）&lt;/span&gt;&lt;/div&gt;" style="rounded=1;whiteSpace=wrap;html=1;fontSize=12;glass=0;strokeWidth=1;shadow=0;align=left;" vertex="1" parent="WIyWlLk6GJQsqaUBKTNV-1">
          <mxGeometry x="40" y="220" width="340" height="100" as="geometry" />
        </mxCell>
        <mxCell id="EGJwQnW9SdyxZlmGQHke-10" value="" style="edgeStyle=orthogonalEdgeStyle;rounded=0;orthogonalLoop=1;jettySize=auto;html=1;fontFamily=Helvetica;fontSize=12;fontColor=default;" edge="1" parent="WIyWlLk6GJQsqaUBKTNV-1" source="EGJwQnW9SdyxZlmGQHke-7" target="EGJwQnW9SdyxZlmGQHke-9">
          <mxGeometry relative="1" as="geometry" />
        </mxCell>
        <mxCell id="EGJwQnW9SdyxZlmGQHke-7" value="选择子流程" style="rounded=1;whiteSpace=wrap;html=1;fontSize=12;glass=0;strokeWidth=1;shadow=0;" vertex="1" parent="WIyWlLk6GJQsqaUBKTNV-1">
          <mxGeometry x="45" y="430" width="120" height="40" as="geometry" />
        </mxCell>
        <mxCell id="EGJwQnW9SdyxZlmGQHke-8" value="&amp;nbsp; &amp;nbsp; 切换到那个 tab 中&amp;nbsp;" style="rounded=1;whiteSpace=wrap;html=1;fontSize=12;glass=0;strokeWidth=1;shadow=0;align=left;" vertex="1" parent="WIyWlLk6GJQsqaUBKTNV-1">
          <mxGeometry x="40" y="720" width="130" height="60" as="geometry" />
        </mxCell>
        <mxCell id="EGJwQnW9SdyxZlmGQHke-11" value="" style="edgeStyle=orthogonalEdgeStyle;rounded=0;orthogonalLoop=1;jettySize=auto;html=1;fontFamily=Helvetica;fontSize=12;fontColor=default;" edge="1" parent="WIyWlLk6GJQsqaUBKTNV-1" source="EGJwQnW9SdyxZlmGQHke-9" target="EGJwQnW9SdyxZlmGQHke-8">
          <mxGeometry relative="1" as="geometry" />
        </mxCell>
        <mxCell id="EGJwQnW9SdyxZlmGQHke-13" value="" style="edgeStyle=orthogonalEdgeStyle;rounded=0;orthogonalLoop=1;jettySize=auto;html=1;fontFamily=Helvetica;fontSize=12;fontColor=default;" edge="1" parent="WIyWlLk6GJQsqaUBKTNV-1" source="EGJwQnW9SdyxZlmGQHke-9" target="EGJwQnW9SdyxZlmGQHke-12">
          <mxGeometry relative="1" as="geometry" />
        </mxCell>
        <mxCell id="EGJwQnW9SdyxZlmGQHke-9" value="&lt;div style=&quot;&quot;&gt;&lt;span style=&quot;background-color: initial;&quot;&gt;&amp;nbsp; &amp;nbsp; &amp;nbsp; &amp;nbsp; 已经在tab中&lt;/span&gt;&lt;/div&gt;" style="rhombus;whiteSpace=wrap;html=1;rounded=1;shadow=0;glass=0;strokeColor=default;strokeWidth=1;align=left;verticalAlign=middle;fontFamily=Helvetica;fontSize=12;fontColor=default;fillColor=default;" vertex="1" parent="WIyWlLk6GJQsqaUBKTNV-1">
          <mxGeometry x="45" y="570" width="120" height="80" as="geometry" />
        </mxCell>
        <mxCell id="EGJwQnW9SdyxZlmGQHke-12" value="&amp;nbsp;1. 把点击到文件对象添加到 全局的 flowStore 对象的 flows 属性中&lt;div&gt;2. UI 切换到最新的 flow 的 tab ，来展示&lt;/div&gt;" style="rounded=1;whiteSpace=wrap;html=1;fontSize=12;glass=0;strokeWidth=1;shadow=0;align=left;" vertex="1" parent="WIyWlLk6GJQsqaUBKTNV-1">
          <mxGeometry x="215" y="580" width="230" height="60" as="geometry" />
        </mxCell>
        <mxCell id="EGJwQnW9SdyxZlmGQHke-14" value="NO" style="text;html=1;align=center;verticalAlign=middle;whiteSpace=wrap;rounded=0;fontFamily=Helvetica;fontSize=12;fontColor=default;" vertex="1" parent="WIyWlLk6GJQsqaUBKTNV-1">
          <mxGeometry x="145" y="585" width="60" height="30" as="geometry" />
        </mxCell>
        <mxCell id="EGJwQnW9SdyxZlmGQHke-15" value="Yes" style="text;html=1;align=center;verticalAlign=middle;whiteSpace=wrap;rounded=0;fontFamily=Helvetica;fontSize=12;fontColor=default;" vertex="1" parent="WIyWlLk6GJQsqaUBKTNV-1">
          <mxGeometry x="55" y="650" width="60" height="30" as="geometry" />
        </mxCell>
        <mxCell id="EGJwQnW9SdyxZlmGQHke-16" value="" style="edgeStyle=orthogonalEdgeStyle;rounded=0;orthogonalLoop=1;jettySize=auto;html=1;fontFamily=Helvetica;fontSize=12;fontColor=default;" edge="1" parent="WIyWlLk6GJQsqaUBKTNV-1" source="EGJwQnW9SdyxZlmGQHke-17" target="EGJwQnW9SdyxZlmGQHke-21">
          <mxGeometry relative="1" as="geometry" />
        </mxCell>
        <mxCell id="EGJwQnW9SdyxZlmGQHke-17" value="刷新" style="rounded=1;whiteSpace=wrap;html=1;fontSize=12;glass=0;strokeWidth=1;shadow=0;" vertex="1" parent="WIyWlLk6GJQsqaUBKTNV-1">
          <mxGeometry x="525" y="435" width="120" height="40" as="geometry" />
        </mxCell>
        <mxCell id="EGJwQnW9SdyxZlmGQHke-18" value="&amp;nbsp; &amp;nbsp;提示用户 有更改，并二次确认是否保存" style="rounded=1;whiteSpace=wrap;html=1;fontSize=12;glass=0;strokeWidth=1;shadow=0;align=left;" vertex="1" parent="WIyWlLk6GJQsqaUBKTNV-1">
          <mxGeometry x="468.75" y="740" width="232.5" height="60" as="geometry" />
        </mxCell>
        <mxCell id="EGJwQnW9SdyxZlmGQHke-19" value="" style="edgeStyle=orthogonalEdgeStyle;rounded=0;orthogonalLoop=1;jettySize=auto;html=1;fontFamily=Helvetica;fontSize=12;fontColor=default;" edge="1" parent="WIyWlLk6GJQsqaUBKTNV-1" source="EGJwQnW9SdyxZlmGQHke-21" target="EGJwQnW9SdyxZlmGQHke-18">
          <mxGeometry relative="1" as="geometry" />
        </mxCell>
        <mxCell id="EGJwQnW9SdyxZlmGQHke-20" value="" style="edgeStyle=orthogonalEdgeStyle;rounded=0;orthogonalLoop=1;jettySize=auto;html=1;fontFamily=Helvetica;fontSize=12;fontColor=default;" edge="1" parent="WIyWlLk6GJQsqaUBKTNV-1" source="EGJwQnW9SdyxZlmGQHke-21" target="EGJwQnW9SdyxZlmGQHke-22">
          <mxGeometry relative="1" as="geometry" />
        </mxCell>
        <mxCell id="EGJwQnW9SdyxZlmGQHke-21" value="&lt;div style=&quot;&quot;&gt;&amp;nbsp; &amp;nbsp; &amp;nbsp; &amp;nbsp; &amp;nbsp;是否有修改&lt;/div&gt;" style="rhombus;whiteSpace=wrap;html=1;rounded=1;shadow=0;glass=0;strokeColor=default;strokeWidth=1;align=left;verticalAlign=middle;fontFamily=Helvetica;fontSize=12;fontColor=default;fillColor=default;" vertex="1" parent="WIyWlLk6GJQsqaUBKTNV-1">
          <mxGeometry x="525" y="575" width="120" height="80" as="geometry" />
        </mxCell>
        <mxCell id="EGJwQnW9SdyxZlmGQHke-22" value="&amp;nbsp; &amp;nbsp;与新建可视化流程的第 2 步类似, 把本地文件恢复至 全局状态中&lt;div&gt;&amp;nbsp; &amp;nbsp;&amp;nbsp;&lt;/div&gt;" style="rounded=1;whiteSpace=wrap;html=1;fontSize=12;glass=0;strokeWidth=1;shadow=0;align=left;" vertex="1" parent="WIyWlLk6GJQsqaUBKTNV-1">
          <mxGeometry x="700" y="592.5" width="375" height="45" as="geometry" />
        </mxCell>
        <mxCell id="EGJwQnW9SdyxZlmGQHke-23" value="NO" style="text;html=1;align=center;verticalAlign=middle;whiteSpace=wrap;rounded=0;fontFamily=Helvetica;fontSize=12;fontColor=default;" vertex="1" parent="WIyWlLk6GJQsqaUBKTNV-1">
          <mxGeometry x="625" y="590" width="60" height="30" as="geometry" />
        </mxCell>
        <mxCell id="EGJwQnW9SdyxZlmGQHke-24" value="Yes" style="text;html=1;align=center;verticalAlign=middle;whiteSpace=wrap;rounded=0;fontFamily=Helvetica;fontSize=12;fontColor=default;" vertex="1" parent="WIyWlLk6GJQsqaUBKTNV-1">
          <mxGeometry x="535" y="655" width="60" height="30" as="geometry" />
        </mxCell>
        <mxCell id="EGJwQnW9SdyxZlmGQHke-25" value="" style="edgeStyle=orthogonalEdgeStyle;rounded=0;orthogonalLoop=1;jettySize=auto;html=1;fontFamily=Helvetica;fontSize=12;fontColor=default;" edge="1" parent="WIyWlLk6GJQsqaUBKTNV-1" source="EGJwQnW9SdyxZlmGQHke-26" target="EGJwQnW9SdyxZlmGQHke-27">
          <mxGeometry relative="1" as="geometry" />
        </mxCell>
        <mxCell id="EGJwQnW9SdyxZlmGQHke-26" value="运行" style="rounded=1;whiteSpace=wrap;html=1;fontSize=12;glass=0;strokeWidth=1;shadow=0;" vertex="1" parent="WIyWlLk6GJQsqaUBKTNV-1">
          <mxGeometry x="1285" y="80" width="120" height="40" as="geometry" />
        </mxCell>
        <mxCell id="EGJwQnW9SdyxZlmGQHke-27" value="&lt;span style=&quot;background-color: initial;&quot;&gt;&amp;nbsp; &amp;nbsp; 1. 更新当前 tab到 全局状态的 flowFiles中&lt;/span&gt;&lt;br&gt;&lt;span style=&quot;background-color: initial;&quot;&gt;&amp;nbsp; &amp;nbsp; 2. 把流程中自定义控件落盘&lt;/span&gt;&lt;br&gt;&lt;b style=&quot;background-color: initial;&quot;&gt;&amp;nbsp; &amp;nbsp; 3. 把全局状态的 flowFiles 落盘为 .py 文件&lt;/b&gt;&lt;br&gt;&lt;span style=&quot;background-color: initial;&quot;&gt;&amp;nbsp; &amp;nbsp; 4. 保存元素库相关内容&lt;/span&gt;&lt;br&gt;&lt;div&gt;&amp;nbsp; &amp;nbsp;&amp;nbsp;&lt;/div&gt;&lt;div&gt;&amp;nbsp; &amp;nbsp; 5. 设置当前状态为运行中&lt;/div&gt;&lt;div&gt;&amp;nbsp; &amp;nbsp; 6.&amp;nbsp; 展示运行相关的 UI 日志界面，最小化窗口&lt;/div&gt;&lt;div&gt;&amp;nbsp; &amp;nbsp; 7. 把 生成的主流程.py 地址与 python地址传递给 （画中画、执行器、自己调用rpad）执行&lt;/div&gt;" style="rounded=1;whiteSpace=wrap;html=1;fontSize=12;glass=0;strokeWidth=1;shadow=0;align=left;" vertex="1" parent="WIyWlLk6GJQsqaUBKTNV-1">
          <mxGeometry x="1170" y="200" width="350" height="140" as="geometry" />
        </mxCell>
        <mxCell id="EGJwQnW9SdyxZlmGQHke-28" value="" style="edgeStyle=orthogonalEdgeStyle;rounded=0;orthogonalLoop=1;jettySize=auto;html=1;fontFamily=Helvetica;fontSize=12;fontColor=default;" edge="1" parent="WIyWlLk6GJQsqaUBKTNV-1" source="EGJwQnW9SdyxZlmGQHke-29" target="EGJwQnW9SdyxZlmGQHke-30">
          <mxGeometry relative="1" as="geometry" />
        </mxCell>
        <mxCell id="EGJwQnW9SdyxZlmGQHke-29" value="发布" style="rounded=1;whiteSpace=wrap;html=1;fontSize=12;glass=0;strokeWidth=1;shadow=0;" vertex="1" parent="WIyWlLk6GJQsqaUBKTNV-1">
          <mxGeometry x="1335" y="435" width="120" height="40" as="geometry" />
        </mxCell>
        <mxCell id="EGJwQnW9SdyxZlmGQHke-32" style="edgeStyle=orthogonalEdgeStyle;rounded=0;orthogonalLoop=1;jettySize=auto;html=1;entryX=1;entryY=0.5;entryDx=0;entryDy=0;fontFamily=Helvetica;fontSize=12;fontColor=default;" edge="1" parent="WIyWlLk6GJQsqaUBKTNV-1" source="EGJwQnW9SdyxZlmGQHke-30" target="WIyWlLk6GJQsqaUBKTNV-7">
          <mxGeometry relative="1" as="geometry">
            <Array as="points">
              <mxPoint x="1100" y="610" />
              <mxPoint x="1100" y="270" />
            </Array>
          </mxGeometry>
        </mxCell>
        <mxCell id="EGJwQnW9SdyxZlmGQHke-30" value="&amp;nbsp; &amp;nbsp; 1. 执行前面的保存操作（有修改不提示，直接触发保存）&lt;div&gt;&amp;nbsp; &amp;nbsp; 2. 把参数传递给 本地库，生成 .zip 压缩文件与 MD5。&lt;/div&gt;&lt;div&gt;&amp;nbsp; &amp;nbsp; 3. 把 .zip 文件路径、md5，与其他流程和控制中心相关的参数组合成http请求参数，上传文件 发送到控制中心。&lt;/div&gt;" style="rounded=1;whiteSpace=wrap;html=1;fontSize=12;glass=0;strokeWidth=1;shadow=0;align=left;" vertex="1" parent="WIyWlLk6GJQsqaUBKTNV-1">
          <mxGeometry x="1220" y="540" width="350" height="110" as="geometry" />
        </mxCell>
      </root>
    </mxGraphModel>
  </diagram>
</mxfile>
